<svg width="30" height="30" viewBox="0 0 30 30" fill="none" xmlns="http://www.w3.org/2000/svg">
<path d="M25.077 15.8091L25.7241 13.3942C26.4794 10.5754 26.857 9.166 26.5726 7.94629C26.3481 6.98321 25.843 6.10835 25.1212 5.43234C24.2071 4.57619 22.7976 4.19854 19.9789 3.44322C17.16 2.68791 15.7505 2.31026 14.5309 2.59466C13.5677 2.81921 12.6929 3.32431 12.0169 4.04609C11.2839 4.82872 10.9016 5.97446 10.3328 8.05701C10.2372 8.40675 10.1364 8.78291 10.0278 9.18821L9.38072 11.6033C8.62541 14.4221 8.24776 15.8315 8.53216 17.0512C8.75671 18.0144 9.26181 18.8892 9.98359 19.5652C10.8977 20.4214 12.3071 20.799 15.126 21.5544C17.6667 22.2351 19.0624 22.6091 20.2062 22.468C20.3315 22.4526 20.4536 22.431 20.574 22.4029C21.537 22.1784 22.4119 21.6732 23.0879 20.9515C23.944 20.0374 24.3217 18.628 25.077 15.8091Z" fill="#CAD0E4"/>
<path d="M3.13072 18.3937L3.77777 20.8086C4.53309 23.6275 4.91074 25.0369 5.76689 25.951C6.4429 26.6727 7.31776 27.1779 8.28082 27.4024C9.50055 27.6867 10.91 27.3091 13.7289 26.5539C16.5476 25.7985 17.9571 25.4209 18.8712 24.5647C18.9471 24.4936 19.0205 24.4204 19.0916 24.3451C18.6739 24.31 18.2525 24.2427 17.8242 24.1576C16.9541 23.9846 15.9202 23.7076 14.6975 23.38L14.564 23.3441L14.533 23.3359C13.2026 22.9794 12.091 22.681 11.2035 22.3604C10.2701 22.0231 9.422 21.6075 8.70185 20.933C7.70941 20.0035 7.01491 18.8005 6.70614 17.4764C6.48209 16.5154 6.54614 15.5731 6.72082 14.5961C6.88822 13.66 7.18886 12.5381 7.54907 11.1939L8.21706 8.70096L8.24056 8.61327C5.83987 9.25999 4.57626 9.6426 3.73359 10.4318C3.01181 11.1079 2.50671 11.9827 2.28216 12.9457C1.99776 14.1655 2.37541 15.5749 3.13072 18.3937Z" fill="#CAD0E4"/>
<path d="M14.8216 11.1197L21.1001 12.802M18.802 8.82158L17.1197 15.1001" stroke="#352F4F" stroke-linecap="round" stroke-linejoin="round"/>
</svg>
